<svg width="17" height="17" viewBox="0 0 17 17" fill="none" xmlns="http://www.w3.org/2000/svg">
<path d="M7.7085 4.54183H9.29183V6.12516H7.7085V4.54183ZM7.7085 7.7085H9.29183V12.4585H7.7085V7.7085ZM8.50016 0.583496C4.13016 0.583496 0.583496 4.13016 0.583496 8.50016C0.583496 12.8702 4.13016 16.4168 8.50016 16.4168C12.8702 16.4168 16.4168 12.8702 16.4168 8.50016C16.4168 4.13016 12.8702 0.583496 8.50016 0.583496ZM8.50016 14.8335C5.00891 14.8335 2.16683 11.9914 2.16683 8.50016C2.16683 5.00891 5.00891 2.16683 8.50016 2.16683C11.9914 2.16683 14.8335 5.00891 14.8335 8.50016C14.8335 11.9914 11.9914 14.8335 8.50016 14.8335Z" fill="#8ABE84"/>
</svg>
