<svg width="36" height="36" viewBox="0 0 36 36" fill="none" xmlns="http://www.w3.org/2000/svg">
<path fill-rule="evenodd" clip-rule="evenodd" d="M11.8449 26.8154V14.1422C11.8449 13.5894 12.0153 13.334 12.5262 13.2912L26.3696 12.4834C26.8391 12.4408 27.0517 12.7388 27.0517 13.2912V25.8794C27.0517 26.4326 26.9663 26.9011 26.1993 26.9433L12.9522 27.7092C12.1855 27.7513 11.8449 27.4966 11.8449 26.8154ZM24.5383 15.631C24.9224 15.5879 25.0074 15.2052 24.9224 14.822L21.9825 14.993C21.5565 15.0352 21.2162 15.3753 21.3012 15.8437L22.409 15.9707V21.84L18.0641 15.2053L14.9118 15.4176C14.315 15.4605 14.1024 16.0129 14.1878 16.3961L15.2524 16.4813V24.8596L14.4856 25.072C14.1876 25.1571 14.1022 25.5821 14.1876 25.7524L17.126 25.5821C18.1919 25.5821 18.1919 24.8169 18.1919 24.8169L16.8707 24.519V18.1823L21.0458 24.7317C21.5565 25.3693 21.7272 25.5821 22.409 25.5821C22.8348 25.5821 23.3458 25.4119 23.9 25.1143V15.7581L24.5383 15.631Z" fill="#8ABE84"/>
<path fill-rule="evenodd" clip-rule="evenodd" d="M20.9606 7.54989L8.8201 8.44326C7.84115 8.52797 7.5 9.16614 7.5 9.93122V23.2002C7.5 23.7963 7.71265 24.3058 8.22404 24.9869L11.0779 28.6869C11.5467 29.2827 11.9727 29.4102 12.8678 29.3675L26.9665 28.5167C28.1589 28.4321 28.5 27.8788 28.5 26.9433V12.0153C28.5 11.5317 28.3085 11.392 27.744 10.9802L27.6474 10.9096L23.772 8.18788C22.835 7.5077 22.4514 7.42211 20.9606 7.54989ZM13.1875 11.7705C12.0364 11.8481 11.7749 11.8658 11.1212 11.3352L9.45893 10.0168C9.28939 9.84632 9.37442 9.63366 9.80008 9.59148L21.4718 8.74081C22.4512 8.65557 22.9623 8.99636 23.3458 9.29392L25.3477 10.74C25.4329 10.7824 25.6456 11.0373 25.3899 11.0373L13.3361 11.7605C13.285 11.7639 13.2355 11.7672 13.1875 11.7705Z" fill="#8ABE84"/>
</svg>
