<svg width="36" height="36" viewBox="0 0 36 36" fill="none" xmlns="http://www.w3.org/2000/svg">
<g clip-path="url(#clip0_226_1543)">
<path fill-rule="evenodd" clip-rule="evenodd" d="M10.1131 9.82853C13.9269 9.82853 17 6.76179 17 3H20C20 6.76179 23.0731 9.82853 26.8869 9.82853V12.8285C24.193 12.8285 21.7469 11.7562 19.9617 10.015V11.3666H20C20 17.3829 24.9145 22.2795 31 22.2795V25.2795C26.5195 25.2795 22.5255 23.1858 19.9617 19.9255V34H16.9617V20.0214C14.395 23.2268 10.4355 25.2795 6 25.2795V22.2795C11.772 22.2795 16.4926 17.8722 16.9617 12.283V10.0889C15.1834 11.7865 12.7687 12.8285 10.1131 12.8285V9.82853Z" fill="#8ABE84"/>
</g>
<defs>
<clipPath id="clip0_226_1543">
<rect width="36" height="36" fill="white"/>
</clipPath>
</defs>
</svg>
