<svg width="36" height="36" viewBox="0 0 36 36" fill="none" xmlns="http://www.w3.org/2000/svg">
<path fill-rule="evenodd" clip-rule="evenodd" d="M26.0063 11.625C26.925 11.4937 27.7125 11.3625 28.5 10.9688C27.975 11.8875 27.1875 12.675 26.2687 13.2C26.5312 19.3687 22.0688 26.0625 14.0625 26.0625C11.7 26.0625 9.46875 25.275 7.5 24.0938C9.73125 24.3563 12.0938 23.7 13.6687 22.5187C11.7 22.5187 10.125 21.2062 9.6 19.5C10.2563 19.6313 10.9125 19.5 11.5688 19.3687C9.6 18.8438 8.15625 17.0063 8.15625 15.0375C8.8125 15.3 9.46875 15.5625 10.125 15.5625C8.2875 14.25 7.63125 11.7563 8.8125 9.7875C11.0437 12.4125 14.1938 14.1187 17.7375 14.25C17.0813 11.625 19.1812 9 21.9375 9C23.1187 9 24.3 9.525 25.0875 10.3125C26.1375 10.05 27.0562 9.7875 27.8438 9.2625C27.5812 10.3125 26.925 11.1 26.0063 11.625Z" fill="#8ABE84"/>
</svg>
