<svg width="36" height="36" viewBox="0 0 36 36" fill="none" xmlns="http://www.w3.org/2000/svg">
<g clip-path="url(#clip0_222_567)">
<path d="M26.8947 22V25.7778C26.8947 27 25.9 28 24.6842 28H9.21053C7.98368 28 7 27 7 25.7778V10.2222C7 9 7.98368 8 9.21053 8H24.6842C25.9 8 26.8947 9 26.8947 10.2222V13.5556M22.5 18V15.5556C22.5 15.0033 22.9477 14.5556 23.5 14.5556H30C30.5523 14.5556 31 15.0033 31 15.5556V20.4444C31 20.9967 30.5523 21.4444 30 21.4444H23.5C22.9477 21.4444 22.5 20.9967 22.5 20.4444V20.2222V18Z" stroke="#8ABE84" stroke-width="3"/>
</g>
<defs>
<clipPath id="clip0_222_567">
<rect width="36" height="36" fill="white"/>
</clipPath>
</defs>
</svg>
