<svg width="44" height="44" viewBox="0 0 44 44" fill="none" xmlns="http://www.w3.org/2000/svg">
<rect width="44" height="44" rx="22" fill="#8ABE84"/>
<path d="M29.938 18.2207C30.0566 17.6734 30.1195 17.1055 30.1195 16.5236C30.1195 12.0627 26.449 8.43311 21.9379 8.43311C17.4268 8.43311 13.7563 12.0627 13.7563 16.5236C13.7563 17.0985 13.8179 17.6586 13.9332 18.2002C10.5992 19.277 8.19972 22.4182 8.28852 26.0901C8.39287 30.3958 11.9382 33.8908 16.2932 33.9812C16.358 33.9825 16.4221 33.9831 16.487 33.9831C18.8333 33.978 20.7181 32.0622 20.7181 29.7421V25.91C19.1521 27.5443 16.9374 28.5653 14.4861 28.5653V26.258C17.7554 26.258 20.4465 23.7648 20.7181 20.5999V19.2174C19.5527 20.198 18.0438 20.7909 16.3975 20.7909V18.4835C18.7924 18.4835 20.7414 16.5569 20.7414 14.188H23.0747C23.0747 16.5601 25.0198 18.4835 27.4186 18.4835V20.7909C25.7503 20.7909 24.2233 20.1826 23.0521 19.1796V20.0737H23.0747C23.0747 23.4898 25.8748 26.2586 29.3294 26.2586V28.566C26.8541 28.566 24.6206 27.5245 23.0521 25.8625V29.7594C23.0521 32.0667 24.9174 33.9607 27.2501 33.9998C27.3357 34.0011 27.4219 34.0011 27.5087 33.9998C31.885 33.9395 35.4648 30.4381 35.5717 26.1119C35.6625 22.4425 33.2688 19.3026 29.9393 18.2214L29.938 18.2207Z" fill="white"/>
</svg>
