<?xml version="1.0" standalone="no"?>
<!DOCTYPE svg PUBLIC "-//W3C//DTD SVG 20010904//EN"
 "http://www.w3.org/TR/2001/REC-SVG-20010904/DTD/svg10.dtd">
<svg version="1.0" xmlns="http://www.w3.org/2000/svg"
 width="2000.000000pt" height="2000.000000pt" viewBox="0 0 2000.000000 2000.000000"
 preserveAspectRatio="xMidYMid meet">
<metadata>
Created by potrace 1.14, written by Peter Selinger 2001-2017
</metadata>
<g transform="translate(0.000000,2000.000000) scale(0.100000,-0.100000)"
fill="#000000" stroke="none">
<path d="M9738 16625 c-1 -1 -46 -6 -98 -10 -52 -4 -104 -9 -115 -11 -11 -2
-40 -6 -65 -9 -82 -10 -196 -29 -270 -47 -25 -5 -58 -12 -75 -14 -16 -3 -41
-9 -55 -14 -14 -6 -34 -11 -45 -13 -96 -17 -493 -152 -520 -178 -5 -5 -15 -9
-23 -9 -20 0 -277 -126 -385 -189 -78 -45 -265 -162 -292 -183 -5 -5 -62 -47
-125 -94 -63 -48 -149 -116 -190 -152 -111 -97 -325 -315 -410 -417 -41 -49
-77 -92 -80 -95 -41 -40 -251 -352 -322 -479 -29 -51 -153 -298 -173 -346 -30
-69 -66 -159 -71 -175 -5 -19 -53 -155 -55 -155 0 0 -2 -7 -4 -15 -2 -8 -10
-35 -19 -60 -8 -25 -25 -83 -36 -130 -12 -47 -23 -94 -26 -105 -12 -49 -52
-265 -59 -315 -3 -30 -8 -66 -10 -80 -20 -130 -27 -576 -13 -756 9 -107 31
-267 52 -378 9 -44 15 -80 13 -81 -1 -1 -56 -21 -122 -45 -447 -161 -878 -417
-1234 -735 -68 -60 -277 -272 -326 -330 -27 -32 -64 -75 -81 -94 -188 -218
-415 -593 -547 -902 -75 -177 -175 -476 -192 -576 -3 -18 -9 -43 -15 -57 -5
-15 -8 -26 -5 -26 2 0 0 -14 -5 -32 -5 -17 -12 -50 -15 -72 -3 -23 -8 -48 -11
-57 -5 -17 -6 -26 -19 -124 -3 -27 -8 -61 -11 -75 -19 -117 -26 -585 -11 -750
9 -99 16 -152 43 -325 58 -370 232 -845 441 -1205 49 -84 175 -281 194 -303 5
-7 44 -57 87 -113 42 -56 102 -130 132 -165 69 -80 286 -298 365 -366 33 -28
71 -61 85 -73 106 -93 393 -291 540 -374 77 -43 299 -154 355 -178 22 -9 72
-30 110 -47 229 -97 648 -208 890 -236 33 -4 68 -9 78 -11 19 -3 91 -10 211
-19 97 -8 328 -8 411 0 216 19 447 79 623 160 29 14 55 25 58 25 10 0 171 94
243 142 84 56 71 47 179 138 342 288 578 698 656 1135 9 50 19 106 22 125 4
19 8 477 9 1017 l3 982 -62 -62 c-107 -106 -180 -170 -331 -296 -236 -196
-640 -434 -960 -566 -288 -119 -672 -225 -945 -260 -202 -27 -297 -35 -465
-39 l-120 -4 1 529 c0 291 2 530 5 532 2 3 68 8 147 11 79 4 151 9 160 10 9 2
40 7 67 10 28 4 66 10 85 12 30 5 193 37 240 48 251 60 541 179 782 323 554
330 982 834 1216 1433 51 130 120 366 137 470 3 19 10 58 15 85 5 28 12 68 16
90 3 22 8 203 9 403 3 275 1 361 -8 355 -7 -4 -46 -34 -87 -66 -320 -254 -761
-467 -1163 -562 -239 -56 -393 -76 -707 -89 l-25 -1 0 535 0 534 70 2 c76 2
205 13 214 18 3 2 31 7 62 10 31 4 97 18 145 32 49 14 99 27 111 30 72 15 328
131 455 207 163 97 404 314 529 477 118 153 221 334 278 485 13 33 27 69 32
80 52 121 103 412 108 613 l1 32 539 0 538 0 2 -67 c1 -38 4 -84 6 -103 2 -19
6 -60 9 -90 3 -30 8 -66 11 -80 3 -14 7 -36 10 -50 33 -179 133 -437 243 -625
83 -145 238 -330 388 -465 244 -221 624 -411 929 -465 22 -4 50 -9 63 -11 12
-2 34 -6 50 -9 43 -8 136 -16 215 -20 40 -2 74 -4 77 -4 8 -1 6 -1056 -2
-1062 -4 -3 -32 -4 -60 -3 -116 6 -255 15 -274 18 -10 2 -44 7 -74 10 -30 4
-77 11 -105 16 -27 5 -66 12 -85 15 -51 9 -222 52 -320 81 -197 60 -479 186
-660 296 -36 21 -74 44 -85 51 -34 20 -228 159 -275 197 -25 19 -52 41 -60 47
-13 10 -15 -12 -14 -186 0 -108 3 -201 6 -207 2 -5 5 -34 6 -64 1 -67 12 -245
17 -270 2 -10 6 -40 10 -67 4 -26 9 -59 11 -73 11 -76 49 -249 63 -290 5 -14
15 -45 22 -70 28 -98 102 -287 156 -398 320 -661 865 -1165 1553 -1435 305
-120 677 -194 983 -196 l77 -1 -2 -532 -3 -533 -95 1 c-99 1 -287 11 -330 18
-14 3 -47 7 -75 10 -27 3 -61 8 -75 10 -14 3 -43 7 -65 10 -196 27 -617 139
-770 205 -11 5 -51 21 -90 37 -322 128 -658 322 -955 551 -103 79 -238 199
-370 329 l-75 74 1 -953 c0 -523 4 -983 8 -1022 16 -149 18 -162 47 -281 113
-477 418 -907 837 -1182 221 -145 535 -266 772 -298 19 -3 64 -9 100 -14 66
-9 521 -6 595 4 22 3 60 8 85 10 139 16 374 59 480 87 41 11 100 27 130 35
129 35 355 118 515 189 27 12 57 25 65 28 107 45 399 216 539 316 51 36 103
73 115 81 20 14 106 82 132 105 7 6 31 26 55 45 47 37 341 328 400 395 110
126 379 495 379 520 0 3 16 31 35 61 20 30 46 76 59 102 13 26 39 79 59 117
99 196 223 527 261 695 2 8 9 33 14 55 13 46 47 213 61 300 40 235 56 588 37
850 -7 97 -9 122 -22 215 -3 25 -8 63 -10 85 -6 49 -62 318 -74 360 -102 338
-157 486 -258 695 -144 296 -348 600 -571 849 -120 136 -310 319 -406 392 -16
13 -32 26 -35 29 -32 40 -324 241 -475 328 -49 29 -97 57 -105 62 -21 13 -193
97 -260 127 -30 14 -68 31 -85 39 -33 15 -138 55 -230 86 -33 12 -61 22 -63
23 -2 2 1 20 7 41 5 22 12 57 16 79 3 23 7 52 10 65 11 57 29 209 40 340 8 82
8 446 1 520 -12 128 -18 180 -31 270 -18 126 -37 229 -49 268 -3 9 -8 33 -11
52 -9 51 -80 294 -110 375 -15 39 -30 81 -34 95 -50 157 -242 528 -385 740
-53 79 -164 232 -175 240 -3 3 -19 23 -36 45 -16 22 -32 42 -35 45 -4 3 -28
30 -55 60 -264 304 -597 576 -963 786 -52 30 -96 54 -100 54 -3 0 -13 6 -21
14 -21 17 -235 116 -365 168 -224 89 -582 190 -751 212 -22 3 -53 8 -70 11
-62 11 -92 15 -160 21 -38 3 -81 8 -95 11 -28 6 -556 14 -562 8z"/>
</g>
</svg>
